# File created by Blade
# Date/Time:  Tue Jan 27 19:58:31 2015
# Frame Rate: 120.000 fps
#------------------------------------------------------
:FULLY-SPECIFIED
:DEGREES
3025
root 6.308428 35.239124 1.121682 32.446943 -17.110933 -48.270129
Spine 7.695243 25.759611 21.537867
Head -27.754342 2.186900 16.438258
LeftShoulder -15.975240 -3.939638 34.616654
LeftArm -4.620769 -19.438088 -78.379500
LeftForeArm -44.219851 0.000000 139.259480
LeftHand 8.037052 -0.000000 -39.819850
LeftHandThumb1 -26.253704 0.000000 33.147579
RightShoulder -6.506765 4.665609 -15.910736
RightArm 34.838278 -48.933036 77.418603
RightForeArm -19.923947 -0.000000 16.353031
RightHand 16.391632 -0.000000 10.959030
RightHandThumb1 -24.326973 -0.000000 -32.862282
LeftUpLeg -9.396632 18.975780 35.350000
LeftLeg 0.003882 -0.000000 -0.000000
LeftFoot -20.716353 23.599015 -17.470244
LeftToeBase 20.850773 -0.000000 -0.000000
RightUpLeg 4.028639 -28.546518 -32.601405
RightLeg 21.293418 -0.000000 -0.000000
RightFoot 29.000688 -23.911778 17.732030
RightToeBase 17.425160 -0.000000 -0.000000
3026
root 6.333260 35.220746 1.102725 32.505693 -17.505671 -48.061188
Spine 7.723458 25.818003 21.120420
Head -27.723818 2.262869 16.560321
LeftShoulder -15.909864 -3.897444 34.690988
LeftArm -4.650143 -19.505288 -78.292287
LeftForeArm -44.231593 -0.000000 139.247052
LeftHand 8.015983 -0.000000 -39.864565
LeftHandThumb1 -26.253704 0.000000 33.147579
RightShoulder -6.520193 4.659061 -15.882172
RightArm 34.759182 -48.717341 77.631106
RightForeArm -19.970616 -0.000000 16.311465
RightHand 16.399564 -0.000000 10.613262
RightHandThumb1 -24.326973 -0.000000 -32.862282
LeftUpLeg -9.313312 18.920170 34.987492
LeftLeg -0.051424 -0.000000 0.000000
LeftFoot -20.718083 23.724334 -17.504708
LeftToeBase 20.807117 -0.000000 -0.000000
RightUpLeg 2.894346 -29.630273 -32.039651
RightLeg 23.508377 -0.000000 -0.000000
RightFoot 29.321554 -23.313553 18.219125
RightToeBase 16.458840 -0.000000 -0.000000
3027
root 6.362588 35.202240 1.078527 32.581225 -17.893870 -47.836485
Spine 7.752530 25.830471 20.692351
Head -27.731175 2.383839 16.612041
LeftShoulder -15.866938 -3.871167 34.751273
LeftArm -4.703149 -19.609383 -78.222478
LeftForeArm -44.311229 -0.000000 139.245777
LeftHand 8.067486 -0.000000 -39.938727
LeftHandThumb1 -26.253704 0.000000 33.147579
RightShoulder -6.528722 4.620209 -15.873330
RightArm 35.011020 -48.808979 77.423017
RightForeArm -19.739097 0.000000 16.347489
RightHand 16.336490 -0.000000 10.182502
RightHandThumb1 -24.326973 -0.000000 -32.862282
LeftUpLeg -9.301423 18.790907 34.624358
LeftLeg -0.040895 -0.000000 0.000000
LeftFoot -21.024178 23.832764 -17.998317
LeftToeBase 21.280535 -0.000000 -0.000000
RightUpLeg 1.684037 -30.796582 -31.458014
RightLeg 25.838999 -0.000000 -0.000000
RightFoot 29.821189 -22.613183 18.542015
RightToeBase 16.394412 -0.000000 -0.000000
3028
root 6.396401 35.181836 1.052691 32.631283 -18.374068 -47.614984
Spine 7.876117 25.919537 20.258122
Head -27.802255 2.452174 16.607045
LeftShoulder -15.832143 -3.857435 34.773703
LeftArm -4.713870 -19.703258 -78.188571
LeftForeArm -44.375289 0.000000 139.264315
LeftHand 8.050534 -0.000000 -39.965038
LeftHandThumb1 -26.253704 0.000000 33.147579
RightShoulder -6.549579 4.656640 -15.912451
RightArm 34.992518 -48.704469 77.570426
RightForeArm -20.030856 -0.000000 16.315658
RightHand 16.283745 -0.000000 10.691649
RightHandThumb1 -24.326973 -0.000000 -32.862282
LeftUpLeg -9.225634 18.729558 34.218042
LeftLeg -0.021599 -0.000000 0.000000
LeftFoot -21.206793 23.959778 -18.281616
LeftToeBase 21.435452 -0.000000 -0.000000
RightUpLeg 0.335757 -31.823756 -30.855596
RightLeg 28.387613 -0.000000 -0.000000
RightFoot 30.557979 -21.746388 18.521208
RightToeBase 15.152298 -0.000000 -0.000000
3029
root 6.431687 35.160406 1.023139 32.750476 -18.830858 -47.383552
Spine 7.899661 25.987001 19.794689
Head -27.857247 2.541138 16.519615
LeftShoulder -15.818470 -3.859589 34.739439
LeftArm -4.724072 -19.836858 -78.107384
LeftForeArm -44.446193 -0.000000 139.302918
LeftHand 8.081976 -0.000000 -40.067929
LeftHandThumb1 -26.253704 0.000000 33.147579
RightShoulder -6.580132 4.670785 -15.955519
RightArm 35.011054 -48.637621 77.689995
RightForeArm -20.107125 -0.000000 16.337678
RightHand 16.300778 -0.000000 10.455973
RightHandThumb1 -24.326973 -0.000000 -32.862282
LeftUpLeg -9.278821 18.724284 33.781151
LeftLeg 0.075350 -0.000000 -0.000000
LeftFoot -21.406852 24.032761 -18.538596
LeftToeBase 21.685293 -0.000000 -0.000000
RightUpLeg -1.121993 -32.900393 -30.177565
RightLeg 31.037892 -0.000000 -0.000000
RightFoot 31.103842 -21.154136 18.619405
RightToeBase 14.679659 -0.000000 -0.000000
3030
root 6.468422 35.135335 0.996461 32.749664 -19.388142 -47.126437
Spine 8.077426 26.635414 19.347690
Head -27.970618 2.111189 16.558382
LeftShoulder -15.284934 -4.206731 34.749850
LeftArm -4.786140 -20.016725 -78.125117
LeftForeArm -44.565333 -0.000000 139.390140
LeftHand 8.022075 0.000000 -40.151549
LeftHandThumb1 -26.253704 0.000000 33.147579
RightShoulder -7.019652 4.527266 -16.003522
RightArm 35.092233 -48.610768 77.631180
RightForeArm -19.961504 0.000000 16.396397
RightHand 16.286090 -0.000000 10.236431
RightHandThumb1 -24.326973 -0.000000 -32.862282
LeftUpLeg -9.157942 18.813041 33.295868
LeftLeg 0.089977 -0.000000 -0.000000
LeftFoot -21.502845 24.117906 -18.678479
LeftToeBase 21.580429 -0.000000 -0.000000
RightUpLeg -2.567323 -33.759081 -29.582062
RightLeg 33.814311 -0.000000 -0.000000
RightFoot 31.382989 -20.767490 18.758735
RightToeBase 14.473066 -0.000000 -0.000000
3031
root 6.501341 35.108671 0.978095 32.732003 -19.987217 -46.865090
Spine 8.257020 26.917259 18.860823
Head -27.984146 2.020217 16.462613
LeftShoulder -15.140593 -4.356945 34.690359
LeftArm -4.807278 -20.157678 -78.091521
LeftForeArm -44.674405 -0.000000 139.476660
LeftHand 7.826967 -0.000000 -40.273031
LeftHandThumb1 -26.253704 0.000000 33.147579
RightShoulder -7.086684 4.501249 -16.053439
RightArm 35.014132 -48.502609 77.789427
RightForeArm -20.086294 -0.000000 16.461339
RightHand 16.294774 -0.000000 10.331267
RightHandThumb1 -24.326973 -0.000000 -32.862282
LeftUpLeg -8.956053 18.981785 32.787883
LeftLeg 0.053347 -0.000000 -0.000000
LeftFoot -21.620654 24.090385 -18.875761
LeftToeBase 21.578711 -0.000000 -0.000000
RightUpLeg -4.030448 -34.662892 -28.988041
RightLeg 36.594936 -0.000000 -0.000000
RightFoot 31.402071 -21.158655 19.148750
RightToeBase 14.634869 -0.000000 -0.000000
